<svg t="1682589490389" class="icon" viewBox="0 0 1024 1024" version="1.1" xmlns="http://www.w3.org/2000/svg" p-id="2661" width="200" height="200"><path d="M967.744 86.016A128 128 0 0 0 896 64a128 128 0 0 0-47.552 9.216l-320 128c-6.016 2.368-10.944 6.336-16.448 9.6-5.504-3.264-10.432-7.232-16.448-9.6l-320-128A128 128 0 0 0 128 64a128 128 0 0 0-128 128v576a128.021333 128.021333 0 0 0 80.448 118.848l320 128c15.36 6.144 31.488 9.152 47.552 9.152 22.4 0 44.224-6.784 64-18.304 19.776 11.52 41.6 18.304 64 18.304 16.064 0 32.192-3.008 47.552-9.152l320-128A128.021333 128.021333 0 0 0 1024 768V192a127.893333 127.893333 0 0 0-56.256-105.984zM448 896L128 768V192l320 128v576z m448-128l-320 128V320l320-128v576z" fill="" p-id="2662"></path></svg>