<svg t="1682506970264" class="icon" viewBox="0 0 1024 1024" version="1.1" xmlns="http://www.w3.org/2000/svg" p-id="5615" width="200" height="200"><path d="M1016.945126 202.231321l-164.779649 328.848428c-11.089571 22.46349-35.799409 37.789845-61.276988 37.789845H394.137766l18.141401 56.869594h499.713123v113.739188H399.085421c-40.718629 0-79.19091-28.093579-91.446307-66.821773L129.438241 113.912841H0.145219V0.173653H142.631986c40.690195 0 79.162475 28.093579 91.417873 66.821773L249.034997 113.912841h712.831927c21.638881 0 41.258891 10.719918 52.4622 28.662276 11.20331 17.970792 12.170093 40.263673 2.616002 59.656204zM370.593754 796.34797a113.852927 113.852927 0 0 1 113.966667 113.739189c0 62.812467-51.040461 113.739188-113.966667 113.739188a113.881362 113.881362 0 0 1-113.995101-113.739188c0-62.812467 51.040461-113.739188 113.995101-113.739189z m427.403435 0a113.881362 113.881362 0 0 1 113.995101 113.739189c0 62.812467-51.040461 113.739188-113.995101 113.739188a113.852927 113.852927 0 0 1-113.966667-113.739188c0-62.812467 51.040461-113.739188 113.966667-113.739189z" p-id="5616"></path></svg>