<svg t="1673593320954" class="icon" viewBox="0 0 1024 1024" version="1.1" xmlns="http://www.w3.org/2000/svg" p-id="6868" width="200" height="200"><path d="M655.36 153.6H189.44A87.552 87.552 0 0 0 102.4 238.592v512a88.576 88.576 0 0 0 56.32 79.36 146.944 146.944 0 0 0 281.6-36.864h133.12a147.456 147.456 0 0 0 291.84 0h40.96a47.104 47.104 0 0 0 46.08-48.128V451.072A297.472 297.472 0 0 0 655.36 153.6z m87.04 102.4a218.112 218.112 0 0 1 122.88 153.6h-122.88zM189.44 238.592h465.92v256H189.44z m107.52 594.944a64 64 0 1 1 0-127.488 64 64 0 0 1 0 127.488z m286.72-127.488h-153.6a153.6 153.6 0 0 0-133.12-84.992 150.016 150.016 0 0 0-107.52 44.544v-87.04h465.92v56.832a153.6 153.6 0 0 0-71.68 70.656z m138.24 127.488a64 64 0 1 1 0-127.488 64 64 0 0 1 0 127.488z m148.48-127.488h-15.36a145.408 145.408 0 0 0-112.64-83.456V493.568H870.4z" fill="#e6e6e6" p-id="6869"></path></svg>