<svg t="1673593283805" class="icon" viewBox="0 0 1024 1024" version="1.1" xmlns="http://www.w3.org/2000/svg" p-id="5799" width="200" height="200"><path d="M725.666909 35.351273c16.64 0 30.696727 20.107636 30.696727 43.915636s-14.056727 43.915636-30.696727 43.915636H298.333091c-16.64 0-30.696727-20.107636-30.696727-43.915636s14.056727-43.915636 30.696727-43.915636h427.333818m0-34.909091H298.333091C262.097455 0.442182 232.727273 35.723636 232.727273 79.243636s29.370182 78.824727 65.605818 78.824728h427.333818C761.902545 158.068364 791.272727 122.786909 791.272727 79.243636S761.902545 0.442182 725.666909 0.442182z" fill="#666666" p-id="5800"></path><path d="M838.330182 923.112727H496.989091c-36.352 0-65.908364-29.370182-65.908364-65.466182V469.550545c0-36.096 29.579636-65.466182 65.908364-65.466181h341.341091v34.909091H496.989091c-17.082182 0-30.999273 13.707636-30.999273 30.55709v388.096c0 16.849455 13.917091 30.557091 30.999273 30.557091h341.341091v34.909091z" fill="#EFB041" p-id="5801"></path><path d="M662.341818 786.222545a17.454545 17.454545 0 0 1-17.454545-17.454545v-210.338909a17.454545 17.454545 0 0 1 34.909091 0v210.338909a17.454545 17.454545 0 0 1-17.454546 17.454545z" fill="#EFB041" p-id="5802"></path><path d="M768.512 681.076364h-212.363636a17.454545 17.454545 0 0 1 0-34.909091h212.363636a17.454545 17.454545 0 0 1 0 34.909091z" fill="#EFB041" p-id="5803"></path><path d="M606.045091 157.998545c1.396364 0 2.490182 0.744727 3.141818 1.373091l184.971636 174.312728 9.216 8.680727c11.217455 10.565818 17.408 25.344 16.965819 41.518545v596.410182c0 4.538182-3.002182 8.378182-6.539637 8.378182H210.176c-3.537455 0-6.539636-3.84-6.539636-8.378182v-597.410909c0.837818-6.446545 3.467636-19.316364 7.656727-26.647273 4.654545-8.168727 12.869818-17.082182 15.034182-19.246545l188.462545-177.594182a4.654545 4.654545 0 0 1 3.141818-1.373091h188.113455m0-34.932363h-188.113455a39.563636 39.563636 0 0 0-27.089454 10.868363l-188.462546 177.594182s-13.195636 12.962909-21.410909 27.345455c-9.867636 17.268364-12.264727 41.937455-12.264727 41.937454v599.435636c0 23.901091 18.571636 43.287273 41.448727 43.287273h603.648c22.900364 0 41.448727-19.386182 41.448728-43.287273V383.883636a88.738909 88.738909 0 0 0-27.950546-66.909091l-9.216-8.680727-184.971636-174.289454a39.284364 39.284364 0 0 0-27.066182-10.914909z" fill="#e6e6e6" p-id="5804"></path></svg>