<svg t="1669953831699" class="icon" viewBox="0 0 1024 1024" version="1.1" xmlns="http://www.w3.org/2000/svg" p-id="5790" width="200" height="200"><path d="M880.493714 127.780571A721.554286 721.554286 0 0 1 555.081143 12.8a77.385143 77.385143 0 0 0-84.992 0.146286 719.140571 719.140571 0 0 1-325.485714 114.907428c-40.301714 4.022857-70.948571 38.473143-70.948572 79.652572v369.371428c0 246.052571 329.289143 445.586286 438.857143 445.586286 109.714286 0 438.857143-199.533714 438.857143-445.659429V207.286857c0-41.106286-30.646857-75.629714-70.875429-79.506286zM464.896 691.785143a36.425143 36.425143 0 0 1-53.321143 0L305.005714 578.633143a41.984 41.984 0 0 1 0-56.612572 36.352 36.352 0 0 1 53.321143 0l79.945143 84.845715L677.961143 352.548571a36.059429 36.059429 0 0 1 53.394286 0 41.910857 41.910857 0 0 1-0.146286 56.539429L464.822857 691.712z" p-id="5791"></path></svg>