<svg t="1683004372495" class="icon" viewBox="0 0 1024 1024" version="1.1" xmlns="http://www.w3.org/2000/svg" p-id="4783" width="200" height="200"><path d="M948.334 343.218L828.45 133.624c-13.351-23.228-42.386-40.105-69.14-40.105H264.14c-26.81 0-55.953 16.823-69.249 39.997l-119.07 206.5c-13.948 24.204-11.397 58.992 6.024 81.08L469.177 910.13c3.365 4.124 7.76 6.674 11.94 9.659l1.193 3.8 2.496-0.815c7.87 4.613 16.39 7.706 25.508 7.706 9.226 0 17.802-3.202 25.778-7.978l2.116 0.651 0.977-3.146c4.233-2.931 8.738-5.537 12.157-9.77l390.642-485.996c17.476-21.87 20.19-56.657 6.35-81.024z m-76.359-15.631H727.29l63.551-141.755 81.134 141.755zM584.828 152.02h157.006l-60.077 133.995-96.929-133.995z m-72.234 0l126.994 175.566h-257.19L509.392 152.02h3.202zM340.228 286.016l-60.131-133.995h157.059l-96.928 133.995zM639.75 386.091L509.446 816.405 371.76 386.09h267.99zM231.633 187.027l63.062 140.56H150.498l81.135-140.56zM128.79 386.09h181.535l123.032 384.51L128.79 386.09z m453.216 392.542L700.913 386.09h195.81c-0.217 0.435-0.163 1.195-0.434 1.52L582.006 778.633z" p-id="4784"></path></svg>